<!-- icon666.com - MILLIONS vector ICONS FREE --><svg enable-background="new 0 0 110 110" viewBox="0 0 110 110" xmlns="http://www.w3.org/2000/svg"><path d="m96.9665527 25.8322887v-10.1894531c0-2.2094727-1.7907715-4-4-4h-75.9331054c-2.2089844 0-4 1.7905273-4 4v10.1894531z" fill="#467082"></path><g fill="#ededed"><path d="m13.0334473 73.8694c0 2.2094727 1.7910156 4 4 4h75.9331055c2.2092285 0 4-1.7905273 4-4v-49.505394h-83.9331055z"></path><circle cx="19.225" cy="18.738" r="2.192"></circle><circle cx="27.522" cy="18.738" r="2.192"></circle><circle cx="35.82" cy="18.738" r="2.192"></circle></g><path d="m36.516361 29.830824h7.741699v1.998333h-7.741699z" fill="#fb7833"></path><g fill="#4da0dc"><path d="m65.741463 29.830824h7.741699v1.998333h-7.741699z"></path><path d="m17.032963 38.239159h7.741699v1.998333h-7.741699z"></path><path d="m46.258061 38.239159h7.741699v1.998333h-7.741699z"></path></g><path d="m55.99976 38.239159h7.741699v1.998333h-7.741699z" fill="#fb7833"></path><path d="m85.224861 38.239159h7.741699v1.998333h-7.741699z" fill="#344d5b"></path><path d="m17.032963 46.647492h7.741699v1.998333h-7.741699z" fill="#fb7833"></path><path d="m65.741463 46.647492h7.741699v1.998333h-7.741699z" fill="#344d5b"></path><path d="m36.516361 55.055824h7.741699v1.998333h-7.741699z" fill="#4da0dc"></path><path d="m46.258061 55.055824h7.741699v1.998333h-7.741699z" fill="#344d5b"></path><path d="m75.483162 55.055824h7.741699v1.998333h-7.741699z" fill="#4da0dc"></path><path d="m85.224861 55.055824h7.741699v1.998333h-7.741699z" fill="#fb7833"></path><path d="m17.032963 71.87249h7.741699v1.998333h-7.741699z" fill="#344d5b"></path><path d="m34.5163536 31.8293591v-1.9985352h-7.7416992-9.7416992v1.9985352h9.7416992z" fill="#b1b2b6"></path><path d="m53.999752 31.8293591h9.7416993v-1.9985352h-9.7416993-7.7416992v1.9985352z" fill="#dbd8dd"></path><path d="m85.2248459 29.8308239h-9.7416992v1.9985352h9.7416992 7.7416992v-1.9985352z" fill="#b1b2b6"></path><path d="m44.2580528 38.2390251h-9.7416992-7.7416992v1.9985352h7.7416992 9.7416992z" fill="#dbd8dd"></path><path d="m73.4831467 40.2375603h9.7416992v-1.9985352h-9.7416992-.8466797-6.8950196v1.9985352h6.8950196z" fill="#dbd8dd"></path><path d="m26.7746544 48.6457634h9.7416992 7.7416992v-1.9980469h-7.7416992-9.7416992z" fill="#dbd8dd"></path><path d="m63.7414513 48.6457634v-1.9980469h-7.7416993-9.7416992v1.9980469h9.7416992z" fill="#b1b2b6"></path><path d="m82.2216721 46.6477165h-6.7385254v1.9980469h6.7385254 1.0031738 9.7416992v-1.9980469h-9.7416992z" fill="#dbd8dd"></path><path d="m27.2944298 57.0539665h7.2219238v-1.9980469h-7.2219238-.5197754-9.7416992v1.9980469h9.7416992z" fill="#dbd8dd"></path><path d="m73.4831467 55.0559196h-9.7416954-.5827637-7.1589356v1.9980469h7.1589356.5827637 9.7416954z" fill="#b1b2b6"></path><path d="m34.5163536 65.4626617v-1.9985389h-7.7416992-9.7416992v1.9985389h9.7416992z" fill="#b1b2b6"></path><path d="m55.999752 63.4641228h-9.7416992v1.9985389h9.7416992.4814454 7.2602539v-1.9985389h-7.2602539z" fill="#dbd8dd"></path><path d="m75.4831467 63.4641228v1.9985389h7.7416992 9.7416992v-1.9985389h-9.7416992z" fill="#dbd8dd"></path><path d="m26.774658 71.87233h16.595703v1.998535h-16.595703z" fill="#dbd8dd"></path><path d="m67.532471 71.87233h15.692383v1.998535h-15.692383z" fill="#b1b2b6"></path><path d="m85.224861 71.87249h7.741699v1.998333h-7.741699z" fill="#fb7833"></path><path d="m75.2497025 52.8178558c0-11.1838951-9.06604-20.2497025-20.2497025-20.2497025s-20.2497025 9.0658073-20.2497025 20.2497025c0 10.3601952 7.7854919 18.8893204 17.8224335 20.0904999v4.4152298h4.854538v-4.4152298c10.0369415-1.2011795 17.8224335-9.7303047 17.8224335-20.0904999z" fill="#344d5b"></path><circle cx="55" cy="52.818" fill="#4288b9" r="16.196"></circle><path d="m42.3038254 52.8177452c-.223629-1.662075-.0424194-3.4118347.5484734-5.0317726.5725327-1.6290474 1.5382309-3.1214409 2.7581673-4.357605 1.2355957-1.2213593 2.7279854-2.1870613 4.3567505-2.7598763 1.6205101-.5916023 3.3705559-.7721024 5.0329132-.5471916-3.3164597.4634895-6.3191833 1.8693352-8.5657463 4.1309853-2.2629281 2.2445679-3.6700555 5.2492828-4.1305581 8.5654602z" fill="#ededed"></path><path d="m55.0000191 75.0137711c-2.690815 0-4.8723106 2.1814957-4.8723106 4.8723145v13.5987701c0 2.6908112 2.1814957 4.8723068 4.8723106 4.8723068 2.6908188 0 4.8723106-2.1814957 4.8723106-4.8723068v-13.5987702c0-2.6908188-2.1814918-4.8723144-4.8723106-4.8723144z" fill="#de594e"></path><path d="m50.127834 80.727028h9.74437v11.916881h-9.74437z" fill="#cd5248"></path></svg>