<!-- icon666.com - MILLIONS vector ICONS FREE --><svg enable-background="new 0 0 140 140" viewBox="0 0 140 140" xmlns="http://www.w3.org/2000/svg"><circle cx="70" cy="70" fill="#4abba4" r="64" style="fill: rgb(0, 87, 128);"></circle><path d="m110.9865036 38.263298c-.7300415-.840332-1.8099976-1.3803711-3.0200195-1.3803711h-75.9299965c-2.2100201 0-3.9999981 1.7900391-3.9999981 4v58.2304688c0 1.0795898.4299927 2.0698242 1.1400146 2.7900391l31.4002056 31.3998947c3.0759888.4541016 6.2210732.6967773 9.4232826.6967773 35.3463135 0 63.9999924-28.6542892 63.9999924-63.9999924 0-3.199707-.2420654-6.3417969-.6953125-9.4155273l-22.2481613-22.2514648z" opacity=".1" fill="#000000"></path><path d="m111.9664841 51.0760536v-10.1894531c0-2.2094727-1.7907715-4-4-4h-75.9331055c-2.2089844 0-4 1.7905273-4 4v10.1894531z" fill="#467082"></path><g fill="#ededed"><path d="m28.0333786 99.1131668c0 2.2094727 1.7910156 4 4 4h75.9331055c2.2092285 0 4-1.7905273 4-4v-49.505394h-83.9331055z" fill="#ededed"></path><circle cx="34.225" cy="43.981" r="2.192" fill="#ededed"></circle><circle cx="42.522" cy="43.981" r="2.192" fill="#ededed"></circle><circle cx="50.82" cy="43.981" r="2.192" fill="#ededed"></circle></g><path d="m51.516293 55.074589h7.741699v1.998333h-7.741699z" fill="#fb7833"></path><g fill="#4da0dc"><path d="m80.741394 55.074589h7.741699v1.998333h-7.741699z" fill="#4da0dc"></path><path d="m32.032894 63.482922h7.741699v1.998333h-7.741699z" fill="#4da0dc"></path><path d="m61.257992 63.482922h7.741699v1.998333h-7.741699z" fill="#4da0dc"></path></g><path d="m70.999695 63.482922h7.741699v1.998333h-7.741699z" fill="#fb7833"></path><path d="m100.224793 63.482922h7.741699v1.998333h-7.741699z" fill="#344d5b"></path><path d="m32.032894 71.891258h7.741699v1.998333h-7.741699z" fill="#fb7833"></path><path d="m80.741394 71.891258h7.741699v1.998333h-7.741699z" fill="#344d5b"></path><path d="m51.516293 80.299591h7.741699v1.998333h-7.741699z" fill="#4da0dc"></path><path d="m61.257992 80.299591h7.741699v1.998333h-7.741699z" fill="#344d5b"></path><path d="m90.483093 80.299591h7.741699v1.998333h-7.741699z" fill="#4da0dc"></path><path d="m100.224793 80.299591h7.741699v1.998333h-7.741699z" fill="#fb7833"></path><path d="m32.032894 97.116257h7.741699v1.998333h-7.741699z" fill="#344d5b"></path><path d="m49.5162849 57.0731239v-1.9985351h-7.7416992-9.7416992v1.9985351h9.7416992z" fill="#b1b2b6"></path><path d="m68.9996872 57.0731239h9.7416992v-1.9985351h-9.7416992-7.741703v1.9985351z" fill="#dbd8dd"></path><path d="m100.2247849 55.0745888h-9.7416993v1.9985351h9.7416993 7.7416992v-1.9985351z" fill="#b1b2b6"></path><path d="m59.2579842 63.4827919h-9.7416993-7.7416992v1.998539h7.7416992 9.7416993z" fill="#dbd8dd"></path><path d="m88.4830856 65.4813309h9.7416993v-1.998539h-9.7416993-.8466797-6.8950195v1.998539h6.8950195z" fill="#dbd8dd"></path><path d="m41.7745857 73.889534h9.7416992 7.7416993v-1.9980469h-7.7416993-9.7416992z" fill="#dbd8dd"></path><path d="m78.7413864 73.889534v-1.9980469h-7.7416992-9.741703v1.9980469h9.741703z" fill="#b1b2b6"></path><path d="m97.221611 71.8914871h-6.7385254v1.9980469h6.7385254 1.0031739 9.7416992v-1.9980469h-9.7416992z" fill="#dbd8dd"></path><path d="m42.2943611 82.2977371h7.2219238v-1.9980469h-7.2219238-.5197754-9.7416992v1.9980469h9.7416992z" fill="#dbd8dd"></path><path d="m88.4830856 80.2996902h-9.7416992-.5827637-7.1589355v1.9980469h7.1589355.5827637 9.7416992z" fill="#b1b2b6"></path><path d="m49.5162849 90.7064285v-1.9985351h-7.7416992-9.7416992v1.9985351h9.7416992z" fill="#b1b2b6"></path><path d="m70.9996872 88.7078934h-9.741703v1.9985351h9.741703.4814453 7.2602539v-1.9985351h-7.2602539z" fill="#dbd8dd"></path><path d="m90.4830856 88.7078934v1.9985351h7.7416993 9.7416992v-1.9985351h-9.7416992z" fill="#dbd8dd"></path><path d="m41.77459 97.116097h16.595703v1.998535h-16.595703z" fill="#dbd8dd"></path><path d="m82.532402 97.116097h15.692383v1.998535h-15.692383z" fill="#b1b2b6"></path><path d="m100.224793 97.116257h7.741699v1.998333h-7.741699z" fill="#fb7833"></path><path d="m90.2496338 78.0616226c0-11.1838989-9.06604-20.2497025-20.2497025-20.2497025s-20.2497025 9.0658035-20.2497025 20.2497025c0 10.3601913 7.7854919 18.8893204 17.8224335 20.0904999v4.4152298h4.854538v-4.4152298c10.0369415-1.2011795 17.8224335-9.7303085 17.8224335-20.0904999z" fill="#344d5b"></path><circle cx="70" cy="78.061" fill="#4288b9" r="16.196"></circle><path d="m57.3037567 78.0615082c-.223629-1.6620712-.0424194-3.4118347.5484734-5.0317688.5725327-1.6290512 1.5382309-3.1214447 2.7581673-4.357605 1.2355957-1.2213593 2.7279854-2.1870651 4.3567505-2.7598801 1.6205063-.5915985 3.3705521-.7721024 5.0329132-.5471878-3.3164597.4634933-6.3191833 1.8693314-8.5657463 4.1309814-2.2629281 2.2445679-3.6700555 5.2492905-4.1305581 8.5654603z" fill="#ededed"></path><path d="m69.9999542 100.2575378c-2.6908188 0-4.8723145 2.1814957-4.8723145 4.8723068v13.5987778c0 2.6908112 2.1814957 4.8723068 4.8723145 4.8723068 2.6908112 0 4.8723068-2.1814957 4.8723068-4.8723068v-13.5987778c0-2.6908111-2.1814956-4.8723068-4.8723068-4.8723068z" fill="#de594e"></path><path d="m65.12777 105.970795h9.74437v11.916881h-9.74437z" fill="#cd5248"></path></svg>